<svg width="67" height="67" viewBox="0 0 67 67" fill="none" xmlns="http://www.w3.org/2000/svg">
<rect width="67" height="67" fill="url(#paint0_linear_202_1667)"/>
<path d="M42.2042 25.7849C41.1286 24.7114 39.6845 24.0769 38.1582 24.0073C36.6318 23.9377 35.1348 24.4381 33.964 25.4091C33.8293 25.5097 33.667 25.5677 33.4985 25.5755C33.3289 25.5706 33.1653 25.5123 33.0315 25.4091C31.8612 24.4375 30.3643 23.9368 28.838 24.0064C27.3118 24.076 25.8678 24.7109 24.7928 25.7849C23.6366 26.9286 23 28.4496 23 30.0671C23 31.6846 23.6366 33.2056 24.7538 34.3077L31.4534 42.0655C31.7059 42.3585 32.0196 42.5938 32.373 42.7551C32.7263 42.9164 33.1108 43 33.5 43C33.8892 43 34.2737 42.9164 34.627 42.7551C34.9804 42.5938 35.2941 42.3585 35.5465 42.0655L42.2057 34.3493C42.7761 33.7883 43.2283 33.1209 43.5363 32.3859C43.8443 31.6509 44.0019 30.8628 44 30.0671C44.0013 29.2714 43.8433 28.4833 43.535 27.7483C43.2268 27.0134 42.7745 26.346 42.2042 25.7849Z" fill="white"/>
<defs>
<linearGradient id="paint0_linear_202_1667" x1="5.12416e-07" y1="1.5" x2="67.0005" y2="66.9995" gradientUnits="userSpaceOnUse">
<stop offset="0.121889" stop-color="#EA8E39"/>
<stop offset="0.559793" stop-color="#FFDA79"/>
<stop offset="0.986625" stop-color="#DBB9B9"/>
</linearGradient>
</defs>
</svg>
